<svg width="384" height="570" viewBox="0 0 384 570" fill="none" xmlns="http://www.w3.org/2000/svg">
<path fill-rule="evenodd" clip-rule="evenodd" d="M28.5219 30.5807C70.7997 -9.85403 141.918 26.3669 200.257 22.0064C250.803 18.2283 301.193 -11.6683 348.447 6.66768C395.899 25.0799 431.077 70.2505 448.156 118.197C463.648 161.687 428.409 207.893 436.329 253.374C446.246 310.326 526.202 360.128 499.184 411.235C472.737 461.264 385.613 416.082 335.961 443.231C283.33 472.01 270.404 581.089 211.778 568.388C149.743 554.949 163.457 454.963 133.016 399.265C116.647 369.315 92.5973 346.697 74.7227 317.621C51.3032 279.526 18.9685 246.339 11.8622 202.188C2.54059 144.274 -13.8703 71.1249 28.5219 30.5807Z" fill="url(#paint0_linear_100_947)"/>
<defs>
<linearGradient id="paint0_linear_100_947" x1="36.2095" y1="23.3789" x2="447.601" y2="462.842" gradientUnits="userSpaceOnUse">
<stop offset="0.166492" stop-color="#FBC2EB"/>
<stop offset="0.563325" stop-color="#AEABFF" stop-opacity="0.53"/>
<stop offset="0.9999" stop-color="#A3A1E1" stop-opacity="0.4"/>
</linearGradient>
</defs>
</svg>
