<svg width="42" height="40" viewBox="0 0 42 40" fill="none" xmlns="http://www.w3.org/2000/svg">
<circle cx="4.8096" cy="19.886" r="3.52494" stroke="#F7B73B" stroke-width="2.56931"/>
<circle cx="20.5879" cy="4.8096" r="3.52494" stroke="#F7B73B" stroke-width="2.56931"/>
<circle cx="20.5879" cy="35.1905" r="3.52494" stroke="#F7B73B" stroke-width="2.56931"/>
<mask id="path-4-inside-1_377_8770" fill="white">
<path fill-rule="evenodd" clip-rule="evenodd" d="M19.3024 23.1899V31.3934H21.8717V23.1905C21.475 23.3505 21.0417 23.4385 20.5878 23.4385C20.1333 23.4385 19.6994 23.3502 19.3024 23.1899ZM23.775 21.2877H31.9819V18.7184H23.7749C23.9351 19.1152 24.0232 19.5488 24.0232 20.0031C24.0232 20.4572 23.9351 20.8908 23.775 21.2877ZM21.8717 16.8156V8.74707H19.3024V16.8162C19.6994 16.6559 20.1333 16.5676 20.5878 16.5676C21.0417 16.5676 21.475 16.6557 21.8717 16.8156ZM17.4006 18.7184H9.19629V21.2877H17.4006C17.2405 20.8908 17.1523 20.4572 17.1523 20.0031C17.1523 19.5488 17.2405 19.1152 17.4006 18.7184Z"/>
</mask>
<path d="M19.3024 23.1899L20.2642 20.8075L16.7331 19.3818V23.1899H19.3024ZM19.3024 31.3934H16.7331V33.9627H19.3024V31.3934ZM21.8717 31.3934V33.9627H24.441V31.3934H21.8717ZM21.8717 23.1905H24.441V19.3844L20.9109 20.8076L21.8717 23.1905ZM23.775 21.2877L21.3923 20.3264L19.9679 23.857H23.775V21.2877ZM31.9819 21.2877V23.857H34.5512V21.2877H31.9819ZM31.9819 18.7184H34.5512V16.1491H31.9819V18.7184ZM23.7749 18.7184V16.1491H19.9677L21.3922 19.6797L23.7749 18.7184ZM21.8717 16.8156L20.9109 19.1985L24.441 20.6217V16.8156H21.8717ZM21.8717 8.74707H24.441V6.17776H21.8717V8.74707ZM19.3024 8.74707V6.17776H16.7331V8.74707H19.3024ZM19.3024 16.8162H16.7331V20.6243L20.2642 19.1987L19.3024 16.8162ZM17.4006 18.7184L19.7833 19.6797L21.2078 16.1491H17.4006V18.7184ZM9.19629 18.7184V16.1491H6.62698V18.7184H9.19629ZM9.19629 21.2877H6.62698V23.857H9.19629V21.2877ZM17.4006 21.2877V23.857H21.2077L19.7833 20.3264L17.4006 21.2877ZM16.7331 23.1899V31.3934H21.8717V23.1899H16.7331ZM19.3024 33.9627H21.8717V28.8241H19.3024V33.9627ZM24.441 31.3934V23.1905H19.3024V31.3934H24.441ZM20.9109 20.8076C20.8145 20.8465 20.7069 20.8692 20.5878 20.8692V26.0078C21.3764 26.0078 22.1356 25.8544 22.8324 25.5735L20.9109 20.8076ZM20.5878 20.8692C20.4685 20.8692 20.3608 20.8464 20.2642 20.8075L18.3405 25.5724C19.038 25.854 19.7981 26.0078 20.5878 26.0078V20.8692ZM23.775 23.857H31.9819V18.7184H23.775V23.857ZM34.5512 21.2877V18.7184H29.4126V21.2877H34.5512ZM31.9819 16.1491H23.7749V21.2877H31.9819V16.1491ZM21.3922 19.6797C21.4312 19.7762 21.4539 19.8838 21.4539 20.0031H26.5925C26.5925 19.2139 26.4389 18.4542 26.1576 17.757L21.3922 19.6797ZM21.4539 20.0031C21.4539 20.1223 21.4312 20.2299 21.3923 20.3264L26.1577 22.249C26.4389 21.5518 26.5925 20.7922 26.5925 20.0031H21.4539ZM24.441 16.8156V8.74707H19.3024V16.8156H24.441ZM21.8717 6.17776H19.3024V11.3164H21.8717V6.17776ZM16.7331 8.74707V16.8162H21.8717V8.74707H16.7331ZM20.2642 19.1987C20.3608 19.1597 20.4685 19.1369 20.5878 19.1369V13.9983C19.7981 13.9983 19.038 14.1521 18.3405 14.4337L20.2642 19.1987ZM20.5878 19.1369C20.7069 19.1369 20.8145 19.1596 20.9109 19.1985L22.8324 14.4327C22.1356 14.1517 21.3764 13.9983 20.5878 13.9983V19.1369ZM17.4006 16.1491H9.19629V21.2877H17.4006V16.1491ZM6.62698 18.7184V21.2877H11.7656V18.7184H6.62698ZM9.19629 23.857H17.4006V18.7184H9.19629V23.857ZM19.7833 20.3264C19.7444 20.2299 19.7217 20.1223 19.7217 20.0031H14.583C14.583 20.7922 14.7366 21.5518 15.0179 22.249L19.7833 20.3264ZM19.7217 20.0031C19.7217 19.8838 19.7444 19.7762 19.7833 19.6797L15.0179 17.757C14.7366 18.4542 14.583 19.2139 14.583 20.0031H19.7217Z" fill="#F7B73B" mask="url(#path-4-inside-1_377_8770)"/>
<circle cx="20.5887" cy="20.0032" r="3.52494" stroke="#F7B73B" stroke-width="2.56931"/>
<circle cx="36.4563" cy="19.886" r="3.52494" stroke="#F7B73B" stroke-width="2.56931"/>
</svg>
