<svg width="303" height="137" viewBox="0 0 303 137" fill="none" xmlns="http://www.w3.org/2000/svg">
<path d="M39.8945 35.6025C39.8945 39.2768 39.1523 42.3672 37.668 44.8735C36.1837 47.3555 34.1275 49.2413 31.4995 50.531C28.8958 51.7963 25.915 52.429 22.557 52.429H11.7165V45.0925C12.4708 45.0438 13.5415 45.0073 14.9285 44.983C16.3155 44.9343 17.6782 44.8978 19.0165 44.8735C20.3792 44.8492 21.3525 44.837 21.9365 44.837C24.1022 44.837 25.7568 44.3382 26.9005 43.3405C28.0442 42.3428 28.8107 41.1383 29.2 39.727C29.6137 38.2913 29.8205 36.9165 29.8205 35.6025C29.8205 34.2885 29.6137 32.9258 29.2 31.5145C28.8107 30.1032 28.0442 28.8987 26.9005 27.901C25.7568 26.9033 24.1022 26.4045 21.9365 26.4045C21.0605 26.4045 20.0993 26.4045 19.053 26.4045C18.031 26.3802 16.9725 26.3558 15.8775 26.3315V69C15.0988 69.146 14.2472 69.2433 13.3225 69.292C12.4222 69.3407 11.6313 69.365 10.95 69.365C10.3173 69.365 9.5265 69.3407 8.5775 69.292C7.65283 69.2433 6.81333 69.146 6.059 69V19.5425L6.57 19.0315C9.49 18.9828 12.2275 18.9342 14.7825 18.8855C17.3618 18.8125 19.9533 18.776 22.557 18.776C25.915 18.776 28.8958 19.3965 31.4995 20.6375C34.1032 21.8542 36.1472 23.7035 37.6315 26.1855C39.1402 28.6675 39.8945 31.8065 39.8945 35.6025ZM43.3706 59.1085C43.3706 56.2372 44.0154 53.889 45.3051 52.064C46.6191 50.239 48.3467 48.8885 50.4881 48.0125C52.6537 47.1365 55.0262 46.6985 57.6056 46.6985C58.8222 46.6985 60.2701 46.7472 61.9491 46.8445C63.6524 46.9175 65.2097 47.1122 66.6211 47.4285V53.597C65.4531 53.3293 64.0904 53.1712 62.5331 53.1225C61.0001 53.0495 59.6374 53.013 58.4451 53.013C56.5227 53.013 55.0871 53.5118 54.1381 54.5095C53.1891 55.4828 52.7146 56.7968 52.7146 58.4515C52.7146 59.6925 53.0796 60.7267 53.8096 61.554C54.5396 62.3813 55.5494 62.795 56.8391 62.795C58.4451 62.795 60.1119 62.2232 61.8396 61.0795C63.5916 59.9358 65.0637 58.3177 66.2561 56.225L67.6431 62.722C66.7184 63.7927 65.6356 64.8998 64.3946 66.0435C63.1536 67.1628 61.6936 68.1118 60.0146 68.8905C58.3599 69.6448 56.4497 70.022 54.2841 70.022C51.8264 70.022 49.7824 69.4745 48.1521 68.3795C46.5461 67.2845 45.3416 65.8975 44.5386 64.2185C43.7599 62.5395 43.3706 60.8362 43.3706 59.1085ZM75.1986 64.6565C75.0039 65.5082 74.5902 66.4207 73.9576 67.394C73.3492 68.3673 72.7166 69.0852 72.0596 69.5475C70.2102 69.3772 68.6894 68.854 67.4971 67.978C66.3047 67.102 65.4044 66.0435 64.7961 64.8025C64.2121 63.5372 63.8349 62.2597 63.6646 60.97V44.9465C63.6646 43.0485 63.2144 41.6615 62.3141 40.7855C61.4137 39.8852 60.0876 39.435 58.3356 39.435C56.6322 39.435 54.8316 39.7027 52.9336 40.238C51.0356 40.749 49.1254 41.333 47.2031 41.99C46.4974 41.2113 45.9256 40.1893 45.4876 38.924C45.0739 37.6587 44.8184 36.4177 44.7211 35.201C46.2297 34.5683 47.9087 34.0087 49.7581 33.522C51.6317 33.0353 53.5176 32.6582 55.4156 32.3905C57.3379 32.0985 59.1021 31.9525 60.7081 31.9525C62.9711 31.9525 65.0394 32.3662 66.9131 33.1935C68.7867 34.0208 70.2954 35.347 71.4391 37.172C72.5827 38.9727 73.1546 41.3452 73.1546 44.2895V59.1815C73.1546 60.3738 73.3006 61.4323 73.5926 62.357C73.8846 63.2817 74.4199 64.0482 75.1986 64.6565ZM105.695 32.7555C105.695 33.9478 105.501 35.4078 105.111 37.1355C104.722 38.8632 104.126 40.3962 103.323 41.7345C102.763 41.5398 102.204 41.406 101.644 41.333C101.084 41.26 100.525 41.1992 99.9649 41.1505C98.7969 41.1505 97.7628 41.3817 96.8624 41.844C95.9621 42.3063 95.1713 42.939 94.4899 43.742C93.8086 44.5207 93.2003 45.4332 92.6649 46.4795C92.1296 47.5258 91.6551 48.633 91.2414 49.801L90.0369 48.268C90.1343 46.3943 90.3776 44.5207 90.7669 42.647C91.1806 40.749 91.8011 39.0213 92.6284 37.464C93.4558 35.8823 94.5751 34.617 95.9864 33.668C97.4221 32.719 99.1984 32.2445 101.315 32.2445C102.216 32.2445 102.994 32.2932 103.651 32.3905C104.308 32.4635 104.99 32.5852 105.695 32.7555ZM80.8024 37.172C80.9971 36.3203 81.3986 35.3957 82.0069 34.398C82.6396 33.4003 83.2844 32.6703 83.9414 32.208C86.8614 32.573 89.0514 33.8018 90.5114 35.8945C91.9714 37.9872 92.8231 40.676 93.0664 43.961V69C92.4094 69.1217 91.6673 69.2068 90.8399 69.2555C90.0126 69.3285 89.1731 69.365 88.3214 69.365C87.4941 69.365 86.6546 69.3285 85.8029 69.2555C84.9756 69.2068 84.2213 69.1217 83.5399 69V44.7275C83.5399 42.6592 83.2358 41.0045 82.6274 39.7635C82.0191 38.5225 81.4108 37.6587 80.8024 37.172ZM114.463 27.536C114.463 25.419 114.841 23.9103 115.595 23.01C116.349 22.1097 117.688 21.6595 119.61 21.6595H123.26L123.771 22.1705V58.6705C123.771 59.6925 124.002 60.4955 124.464 61.0795C124.951 61.6635 125.766 61.9555 126.91 61.9555H131.436C131.947 63.4398 132.202 64.985 132.202 66.591C132.202 66.9317 132.19 67.2967 132.166 67.686C132.142 68.051 132.081 68.3917 131.983 68.708C130.694 68.8783 129.258 69.0243 127.676 69.146C126.119 69.2677 124.61 69.3285 123.15 69.3285C120.255 69.3285 118.077 68.6107 116.617 67.175C115.181 65.715 114.463 63.4763 114.463 60.459V27.536ZM132.604 32.6825C132.896 33.8018 133.042 34.9333 133.042 36.077C133.042 37.3423 132.896 38.5103 132.604 39.581L119.792 39.362L108.879 39.581C108.636 38.4617 108.514 37.2937 108.514 36.077C108.514 34.982 108.636 33.8505 108.879 32.6825L120.011 32.865L132.604 32.6825ZM160.424 67.9415C159.45 71.4455 158.307 74.4628 156.993 76.9935C155.703 79.5485 153.975 81.5073 151.81 82.87C149.668 84.257 146.834 84.9505 143.305 84.9505C141.991 84.9505 140.556 84.8045 138.998 84.5125C137.441 84.2205 136.224 83.9285 135.348 83.6365C135.251 82.5415 135.397 81.3127 135.786 79.95C136.176 78.5873 136.687 77.541 137.319 76.811C138.001 77.03 138.901 77.249 140.02 77.468C141.14 77.7113 142.247 77.833 143.342 77.833C144.777 77.833 145.994 77.5288 146.992 76.9205C147.989 76.3122 148.829 75.4483 149.51 74.329C150.216 73.234 150.8 71.9322 151.262 70.4235L151.518 69.438C149.766 69.4137 148.33 69.0973 147.211 68.489C146.116 67.8563 145.337 66.7492 144.875 65.1675L135.823 33.4855C136.845 33.0232 137.879 32.6947 138.925 32.5C139.972 32.281 140.896 32.1715 141.699 32.1715C142.843 32.1715 143.804 32.4635 144.583 33.0475C145.361 33.6072 145.958 34.69 146.371 36.296L150.532 51.699C150.824 52.648 151.092 53.7552 151.335 55.0205C151.603 56.2615 151.858 57.4903 152.102 58.707C152.345 59.8993 152.54 60.9335 152.686 61.8095C152.759 62.1502 152.978 62.3205 153.343 62.3205L160.497 32.7555C161.032 32.6338 161.653 32.5487 162.358 32.5C163.088 32.427 163.757 32.3905 164.366 32.3905C165.193 32.3905 166.033 32.4392 166.884 32.5365C167.736 32.6095 168.575 32.7798 169.403 33.0475L169.731 33.668L160.424 67.9415ZM210.275 35.6025C210.275 39.2768 209.533 42.3672 208.049 44.8735C206.565 47.3555 204.508 49.2413 201.88 50.531C199.277 51.7963 196.296 52.429 192.938 52.429H182.097V45.0925C182.852 45.0438 183.922 45.0073 185.309 44.983C186.696 44.9343 188.059 44.8978 189.397 44.8735C190.76 44.8492 191.733 44.837 192.317 44.837C194.483 44.837 196.138 44.3382 197.281 43.3405C198.425 42.3428 199.192 41.1383 199.581 39.727C199.995 38.2913 200.201 36.9165 200.201 35.6025C200.201 34.2885 199.995 32.9258 199.581 31.5145C199.192 30.1032 198.425 28.8987 197.281 27.901C196.138 26.9033 194.483 26.4045 192.317 26.4045C191.441 26.4045 190.48 26.4045 189.434 26.4045C188.412 26.3802 187.353 26.3558 186.258 26.3315V69C185.48 69.146 184.628 69.2433 183.703 69.292C182.803 69.3407 182.012 69.365 181.331 69.365C180.698 69.365 179.907 69.3407 178.958 69.292C178.034 69.2433 177.194 69.146 176.44 69V19.5425L176.951 19.0315C179.871 18.9828 182.608 18.9342 185.163 18.8855C187.743 18.8125 190.334 18.776 192.938 18.776C196.296 18.776 199.277 19.3965 201.88 20.6375C204.484 21.8542 206.528 23.7035 208.012 26.1855C209.521 28.6675 210.275 31.8065 210.275 35.6025ZM213.751 59.1085C213.751 56.2372 214.396 53.889 215.686 52.064C217 50.239 218.728 48.8885 220.869 48.0125C223.035 47.1365 225.407 46.6985 227.986 46.6985C229.203 46.6985 230.651 46.7472 232.33 46.8445C234.033 46.9175 235.591 47.1122 237.002 47.4285V53.597C235.834 53.3293 234.471 53.1712 232.914 53.1225C231.381 53.0495 230.018 53.013 228.826 53.013C226.904 53.013 225.468 53.5118 224.519 54.5095C223.57 55.4828 223.095 56.7968 223.095 58.4515C223.095 59.6925 223.46 60.7267 224.19 61.554C224.92 62.3813 225.93 62.795 227.22 62.795C228.826 62.795 230.493 62.2232 232.22 61.0795C233.972 59.9358 235.445 58.3177 236.637 56.225L238.024 62.722C237.099 63.7927 236.016 64.8998 234.775 66.0435C233.534 67.1628 232.074 68.1118 230.395 68.8905C228.741 69.6448 226.831 70.022 224.665 70.022C222.207 70.022 220.163 69.4745 218.533 68.3795C216.927 67.2845 215.722 65.8975 214.919 64.2185C214.141 62.5395 213.751 60.8362 213.751 59.1085ZM245.579 64.6565C245.385 65.5082 244.971 66.4207 244.338 67.394C243.73 68.3673 243.097 69.0852 242.44 69.5475C240.591 69.3772 239.07 68.854 237.878 67.978C236.686 67.102 235.785 66.0435 235.177 64.8025C234.593 63.5372 234.216 62.2597 234.045 60.97V44.9465C234.045 43.0485 233.595 41.6615 232.695 40.7855C231.795 39.8852 230.468 39.435 228.716 39.435C227.013 39.435 225.212 39.7027 223.314 40.238C221.416 40.749 219.506 41.333 217.584 41.99C216.878 41.2113 216.306 40.1893 215.868 38.924C215.455 37.6587 215.199 36.4177 215.102 35.201C216.611 34.5683 218.29 34.0087 220.139 33.522C222.013 33.0353 223.898 32.6582 225.796 32.3905C227.719 32.0985 229.483 31.9525 231.089 31.9525C233.352 31.9525 235.42 32.3662 237.294 33.1935C239.168 34.0208 240.676 35.347 241.82 37.172C242.964 38.9727 243.535 41.3452 243.535 44.2895V59.1815C243.535 60.3738 243.681 61.4323 243.973 62.357C244.265 63.2817 244.801 64.0482 245.579 64.6565ZM267.9 61.9555C268.119 62.6368 268.302 63.379 268.448 64.182C268.594 64.985 268.667 65.788 268.667 66.591C268.667 66.9317 268.655 67.2967 268.63 67.686C268.606 68.051 268.545 68.3917 268.448 68.708C267.474 68.854 266.355 68.9878 265.09 69.1095C263.824 69.2555 262.583 69.3285 261.367 69.3285C258.52 69.3285 256.439 68.6107 255.125 67.175C253.836 65.715 253.191 63.4763 253.191 60.459V15.783L253.702 15.3085H257.388C259.311 15.3085 260.649 15.7587 261.403 16.659C262.158 17.535 262.535 19.0437 262.535 21.185V58.5975C262.535 60.8362 263.545 61.9555 265.564 61.9555H267.9ZM272.296 66.4085C272.344 65.3622 272.649 64.2063 273.208 62.941C273.768 61.6513 274.413 60.6293 275.143 59.875C276.724 60.7023 278.379 61.4323 280.107 62.065C281.834 62.6977 283.574 63.014 285.326 63.014C287.005 63.014 288.307 62.6855 289.232 62.0285C290.181 61.3715 290.667 60.532 290.692 59.51C290.692 58.634 290.363 57.8432 289.706 57.1375C289.074 56.4318 288.088 55.8478 286.75 55.3855L282.589 53.889C280.91 53.2563 279.365 52.4777 277.953 51.553C276.566 50.604 275.459 49.4482 274.632 48.0855C273.829 46.7228 273.427 45.0925 273.427 43.1945C273.427 40.8342 273.999 38.8023 275.143 37.099C276.286 35.3713 277.88 34.0452 279.924 33.1205C281.968 32.1958 284.316 31.7335 286.969 31.7335C289.11 31.7335 291.373 32.0255 293.758 32.6095C296.142 33.1692 298.101 33.8262 299.634 34.5805C299.683 35.3348 299.598 36.1622 299.379 37.0625C299.16 37.9628 298.831 38.8023 298.393 39.581C297.98 40.3353 297.505 40.9315 296.97 41.3695C295.558 40.7368 293.977 40.1528 292.225 39.6175C290.497 39.0578 288.745 38.778 286.969 38.778C285.703 38.778 284.706 39.0943 283.976 39.727C283.27 40.3353 282.917 41.1018 282.917 42.0265C282.917 42.8538 283.209 43.5473 283.793 44.107C284.377 44.6667 285.278 45.1655 286.494 45.6035L291.02 47.246C293.77 48.2193 296.033 49.6185 297.809 51.4435C299.61 53.2442 300.51 55.641 300.51 58.634C300.51 62.138 299.16 64.912 296.459 66.956C293.758 69 290.096 70.022 285.472 70.022C282.869 70.022 280.435 69.6692 278.172 68.9635C275.909 68.2335 273.95 67.3818 272.296 66.4085Z" fill="#9C69BC"/>
<path d="M37.512 130V110.56H40.224V118.96H45.216V110.56H47.928V130H45.216V120.904H40.224V130H37.512ZM49.9091 130L54.0371 110.56H56.6531L60.8051 130H58.2371L57.3491 125.104H53.3891L52.4531 130H49.9091ZM53.7491 123.16H56.9891L55.3571 114.4L53.7491 123.16ZM62.7776 130V110.56H65.1776V124.024L70.8656 110.56H72.8096V130H70.4336V116.32L64.7936 130H62.7776ZM68.0336 109.048C66.8816 109.048 66.0656 108.736 65.5856 108.112C65.1216 107.488 64.8896 106.712 64.8896 105.784H66.3776C66.3936 106.36 66.5216 106.808 66.7616 107.128C67.0176 107.432 67.4416 107.584 68.0336 107.584C68.6416 107.584 69.0656 107.424 69.3056 107.104C69.5616 106.784 69.6896 106.344 69.6896 105.784H71.2016C71.2016 106.712 70.9616 107.488 70.4816 108.112C70.0176 108.736 69.2016 109.048 68.0336 109.048ZM74.6078 133.528V128.056H75.4958C75.7678 127.832 76.0318 127.56 76.2878 127.24C76.5598 126.92 76.8078 126.504 77.0318 125.992C77.2718 125.464 77.4878 124.792 77.6798 123.976C77.8718 123.144 78.0398 122.104 78.1838 120.856C78.3438 119.608 78.4638 118.096 78.5438 116.32L78.8558 110.56H86.9918V128.056H88.8638V133.528H86.7758L86.5598 130H76.9118L76.6958 133.528H74.6078ZM78.0158 128.056H84.3038V112.576H81.1598L80.9678 116.968C80.9038 118.696 80.7998 120.152 80.6558 121.336C80.5278 122.504 80.3678 123.472 80.1758 124.24C79.9998 124.992 79.7918 125.608 79.5518 126.088C79.3278 126.552 79.0798 126.928 78.8078 127.216C78.5518 127.504 78.2878 127.784 78.0158 128.056ZM90.9026 130V110.56H93.3026V124.024L98.9906 110.56H100.935V130H98.5586V116.32L92.9186 130H90.9026ZM114.337 130.216C112.961 130.216 111.889 129.928 111.121 129.352C110.369 128.776 109.841 128 109.537 127.024C109.249 126.048 109.105 124.96 109.105 123.76V116.896C109.105 115.584 109.249 114.44 109.537 113.464C109.841 112.488 110.369 111.736 111.121 111.208C111.889 110.664 112.961 110.392 114.337 110.392C115.553 110.392 116.513 110.616 117.217 111.064C117.937 111.512 118.449 112.152 118.753 112.984C119.073 113.816 119.233 114.816 119.233 115.984V117.52H116.665V116.152C116.665 115.432 116.625 114.8 116.545 114.256C116.481 113.696 116.289 113.264 115.969 112.96C115.649 112.656 115.113 112.504 114.361 112.504C113.593 112.504 113.033 112.672 112.681 113.008C112.329 113.328 112.097 113.792 111.985 114.4C111.889 114.992 111.841 115.688 111.841 116.488V124.192C111.841 125.168 111.921 125.944 112.081 126.52C112.241 127.08 112.505 127.48 112.873 127.72C113.241 127.96 113.737 128.08 114.361 128.08C115.097 128.08 115.625 127.92 115.945 127.6C116.265 127.264 116.465 126.808 116.545 126.232C116.625 125.656 116.665 124.984 116.665 124.216V122.776H119.233V124.216C119.233 125.4 119.089 126.448 118.801 127.36C118.513 128.256 118.017 128.96 117.313 129.472C116.609 129.968 115.617 130.216 114.337 130.216ZM121.817 130V110.56H129.353V112.576H124.529V119.008H128.441V120.928H124.529V128.056H129.401V130H121.817ZM131.59 130V110.56H139.942V112.528H134.302V118.648H134.902C136.31 118.648 137.47 118.816 138.382 119.152C139.31 119.472 139.998 120.04 140.446 120.856C140.91 121.672 141.142 122.824 141.142 124.312C141.142 125.32 141.022 126.184 140.782 126.904C140.542 127.608 140.166 128.192 139.654 128.656C139.158 129.12 138.526 129.464 137.758 129.688C137.006 129.896 136.102 130 135.046 130H131.59ZM134.302 128.056H135.07C135.87 128.056 136.526 127.968 137.038 127.792C137.566 127.6 137.95 127.232 138.19 126.688C138.446 126.144 138.574 125.344 138.574 124.288C138.574 122.96 138.318 122.016 137.806 121.456C137.31 120.896 136.374 120.616 134.998 120.616H134.302V128.056ZM143.45 130V110.56H150.986V112.576H146.162V119.008H150.074V120.928H146.162V128.056H151.034V130H143.45ZM158.707 130V110.56H161.419V119.2H162.427L165.907 110.56H168.619L164.779 119.8L169.099 130H166.387L162.451 120.52H161.419V130H158.707ZM175.863 130.216C174.551 130.216 173.503 129.96 172.719 129.448C171.935 128.936 171.375 128.208 171.039 127.264C170.703 126.304 170.535 125.184 170.535 123.904V116.536C170.535 115.256 170.703 114.16 171.039 113.248C171.391 112.32 171.951 111.616 172.719 111.136C173.503 110.64 174.551 110.392 175.863 110.392C177.175 110.392 178.215 110.64 178.983 111.136C179.751 111.632 180.303 112.336 180.639 113.248C180.991 114.16 181.167 115.256 181.167 116.536V123.928C181.167 125.192 180.991 126.296 180.639 127.24C180.303 128.184 179.751 128.92 178.983 129.448C178.215 129.96 177.175 130.216 175.863 130.216ZM175.863 128.08C176.583 128.08 177.127 127.936 177.495 127.648C177.863 127.344 178.111 126.928 178.239 126.4C178.367 125.856 178.431 125.224 178.431 124.504V115.984C178.431 115.264 178.367 114.648 178.239 114.136C178.111 113.608 177.863 113.208 177.495 112.936C177.127 112.648 176.583 112.504 175.863 112.504C175.143 112.504 174.591 112.648 174.207 112.936C173.839 113.208 173.591 113.608 173.463 114.136C173.335 114.648 173.271 115.264 173.271 115.984V124.504C173.271 125.224 173.335 125.856 173.463 126.4C173.591 126.928 173.839 127.344 174.207 127.648C174.591 127.936 175.143 128.08 175.863 128.08ZM183.784 130L184.144 110.56H186.808L190.24 126.328L193.696 110.56H196.336L196.696 130H194.512L194.296 115.888L191.008 130H189.472L186.208 115.888L185.992 130H183.784ZM199.676 130V110.56H210.38V130H207.668V112.504H202.388V130H199.676ZM212.354 130L216.482 110.56H219.098L223.25 130H220.682L219.794 125.104H215.834L214.898 130H212.354ZM216.194 123.16H219.434L217.802 114.4L216.194 123.16ZM225.223 130V110.56H227.935V118.96H232.927V110.56H235.639V130H232.927V120.904H227.935V130H225.223ZM238.676 130V110.56H241.076V124.024L246.764 110.56H248.708V130H246.332V116.32L240.692 130H238.676ZM261.426 130.216C260.178 130.216 259.194 129.96 258.474 129.448C257.754 128.92 257.242 128.176 256.938 127.216C256.65 126.256 256.506 125.136 256.506 123.856V121.096H254.298V130H251.754V110.56H254.298V119.032H256.506V116.608C256.506 115.312 256.65 114.2 256.938 113.272C257.242 112.344 257.754 111.632 258.474 111.136C259.194 110.64 260.178 110.392 261.426 110.392C262.674 110.392 263.65 110.648 264.354 111.16C265.074 111.656 265.586 112.368 265.89 113.296C266.194 114.224 266.346 115.328 266.346 116.608V123.856C266.346 125.12 266.194 126.232 265.89 127.192C265.586 128.152 265.074 128.896 264.354 129.424C263.65 129.952 262.674 130.216 261.426 130.216ZM261.426 128.08C262.114 128.08 262.634 127.936 262.986 127.648C263.338 127.344 263.578 126.928 263.706 126.4C263.834 125.856 263.898 125.224 263.898 124.504V115.984C263.898 115.264 263.834 114.648 263.706 114.136C263.578 113.608 263.338 113.208 262.986 112.936C262.634 112.648 262.114 112.504 261.426 112.504C260.738 112.504 260.21 112.648 259.842 112.936C259.49 113.208 259.25 113.608 259.122 114.136C258.994 114.648 258.93 115.264 258.93 115.984V124.504C258.93 125.224 258.994 125.856 259.122 126.4C259.25 126.928 259.49 127.344 259.842 127.648C260.21 127.936 260.738 128.08 261.426 128.08Z" fill="#564E6A"/>
</svg>
