<svg width="188" height="59" viewBox="0 0 188 59" fill="none" xmlns="http://www.w3.org/2000/svg">
<path d="M48.7124 14.275C48.7124 15.785 48.4074 17.055 47.7974 18.085C47.1874 19.105 46.3424 19.88 45.2624 20.41C44.1924 20.93 42.9674 21.19 41.5874 21.19H37.1324V18.175C37.4424 18.155 37.8824 18.14 38.4524 18.13C39.0224 18.11 39.5824 18.095 40.1324 18.085C40.6924 18.075 41.0924 18.07 41.3324 18.07C42.2224 18.07 42.9024 17.865 43.3724 17.455C43.8424 17.045 44.1574 16.55 44.3174 15.97C44.4874 15.38 44.5724 14.815 44.5724 14.275C44.5724 13.735 44.4874 13.175 44.3174 12.595C44.1574 12.015 43.8424 11.52 43.3724 11.11C42.9024 10.7 42.2224 10.495 41.3324 10.495C40.9724 10.495 40.5774 10.495 40.1474 10.495C39.7274 10.485 39.2924 10.475 38.8424 10.465V28C38.5224 28.06 38.1724 28.1 37.7924 28.12C37.4224 28.14 37.0974 28.15 36.8174 28.15C36.5574 28.15 36.2324 28.14 35.8424 28.12C35.4624 28.1 35.1174 28.06 34.8074 28V7.675L35.0174 7.465C36.2174 7.445 37.3424 7.425 38.3924 7.405C39.4524 7.375 40.5174 7.36 41.5874 7.36C42.9674 7.36 44.1924 7.615 45.2624 8.125C46.3324 8.625 47.1724 9.385 47.7824 10.405C48.4024 11.425 48.7124 12.715 48.7124 14.275ZM50.1409 23.935C50.1409 22.755 50.4059 21.79 50.9359 21.04C51.4759 20.29 52.1859 19.735 53.0659 19.375C53.9559 19.015 54.9309 18.835 55.9909 18.835C56.4909 18.835 57.0859 18.855 57.7759 18.895C58.4759 18.925 59.1159 19.005 59.6959 19.135V21.67C59.2159 21.56 58.6559 21.495 58.0159 21.475C57.3859 21.445 56.8259 21.43 56.3359 21.43C55.5459 21.43 54.9559 21.635 54.5659 22.045C54.1759 22.445 53.9809 22.985 53.9809 23.665C53.9809 24.175 54.1309 24.6 54.4309 24.94C54.7309 25.28 55.1459 25.45 55.6759 25.45C56.3359 25.45 57.0209 25.215 57.7309 24.745C58.4509 24.275 59.0559 23.61 59.5459 22.75L60.1159 25.42C59.7359 25.86 59.2909 26.315 58.7809 26.785C58.2709 27.245 57.6709 27.635 56.9809 27.955C56.3009 28.265 55.5159 28.42 54.6259 28.42C53.6159 28.42 52.7759 28.195 52.1059 27.745C51.4459 27.295 50.9509 26.725 50.6209 26.035C50.3009 25.345 50.1409 24.645 50.1409 23.935ZM63.2209 26.215C63.1409 26.565 62.9709 26.94 62.7109 27.34C62.4609 27.74 62.2009 28.035 61.9309 28.225C61.1709 28.155 60.5459 27.94 60.0559 27.58C59.5659 27.22 59.1959 26.785 58.9459 26.275C58.7059 25.755 58.5509 25.23 58.4809 24.7V18.115C58.4809 17.335 58.2959 16.765 57.9259 16.405C57.5559 16.035 57.0109 15.85 56.2909 15.85C55.5909 15.85 54.8509 15.96 54.0709 16.18C53.2909 16.39 52.5059 16.63 51.7159 16.9C51.4259 16.58 51.1909 16.16 51.0109 15.64C50.8409 15.12 50.7359 14.61 50.6959 14.11C51.3159 13.85 52.0059 13.62 52.7659 13.42C53.5359 13.22 54.3109 13.065 55.0909 12.955C55.8809 12.835 56.6059 12.775 57.2659 12.775C58.1959 12.775 59.0459 12.945 59.8159 13.285C60.5859 13.625 61.2059 14.17 61.6759 14.92C62.1459 15.66 62.3809 16.635 62.3809 17.845V23.965C62.3809 24.455 62.4409 24.89 62.5609 25.27C62.6809 25.65 62.9009 25.965 63.2209 26.215ZM75.7539 13.105C75.7539 13.595 75.6739 14.195 75.5139 14.905C75.3539 15.615 75.1089 16.245 74.7789 16.795C74.5489 16.715 74.3189 16.66 74.0889 16.63C73.8589 16.6 73.6289 16.575 73.3989 16.555C72.9189 16.555 72.4939 16.65 72.1239 16.84C71.7539 17.03 71.4289 17.29 71.1489 17.62C70.8689 17.94 70.6189 18.315 70.3989 18.745C70.1789 19.175 69.9839 19.63 69.8139 20.11L69.3189 19.48C69.3589 18.71 69.4589 17.94 69.6189 17.17C69.7889 16.39 70.0439 15.68 70.3839 15.04C70.7239 14.39 71.1839 13.87 71.7639 13.48C72.3539 13.09 73.0839 12.895 73.9539 12.895C74.3239 12.895 74.6439 12.915 74.9139 12.955C75.1839 12.985 75.4639 13.035 75.7539 13.105ZM65.5239 14.92C65.6039 14.57 65.7689 14.19 66.0189 13.78C66.2789 13.37 66.5439 13.07 66.8139 12.88C68.0139 13.03 68.9139 13.535 69.5139 14.395C70.1139 15.255 70.4639 16.36 70.5639 17.71V28C70.2939 28.05 69.9889 28.085 69.6489 28.105C69.3089 28.135 68.9639 28.15 68.6139 28.15C68.2739 28.15 67.9289 28.135 67.5789 28.105C67.2389 28.085 66.9289 28.05 66.6489 28V18.025C66.6489 17.175 66.5239 16.495 66.2739 15.985C66.0239 15.475 65.7739 15.12 65.5239 14.92ZM79.3571 10.96C79.3571 10.09 79.5121 9.47 79.8221 9.1C80.1321 8.73 80.6821 8.545 81.4721 8.545H82.9721L83.1821 8.755V23.755C83.1821 24.175 83.2771 24.505 83.4671 24.745C83.6671 24.985 84.0021 25.105 84.4721 25.105H86.3321C86.5421 25.715 86.6471 26.35 86.6471 27.01C86.6471 27.15 86.6421 27.3 86.6321 27.46C86.6221 27.61 86.5971 27.75 86.5571 27.88C86.0271 27.95 85.4371 28.01 84.7871 28.06C84.1471 28.11 83.5271 28.135 82.9271 28.135C81.7371 28.135 80.8421 27.84 80.2421 27.25C79.6521 26.65 79.3571 25.73 79.3571 24.49V10.96ZM86.8121 13.075C86.9321 13.535 86.9921 14 86.9921 14.47C86.9921 14.99 86.9321 15.47 86.8121 15.91L81.5471 15.82L77.0621 15.91C76.9621 15.45 76.9121 14.97 76.9121 14.47C76.9121 14.02 76.9621 13.555 77.0621 13.075L81.6371 13.15L86.8121 13.075ZM98.245 27.565C97.845 29.005 97.375 30.245 96.835 31.285C96.305 32.335 95.595 33.14 94.705 33.7C93.825 34.27 92.66 34.555 91.21 34.555C90.67 34.555 90.08 34.495 89.44 34.375C88.8 34.255 88.3 34.135 87.94 34.015C87.9 33.565 87.96 33.06 88.12 32.5C88.28 31.94 88.49 31.51 88.75 31.21C89.03 31.3 89.4 31.39 89.86 31.48C90.32 31.58 90.775 31.63 91.225 31.63C91.815 31.63 92.315 31.505 92.725 31.255C93.135 31.005 93.48 30.65 93.76 30.19C94.05 29.74 94.29 29.205 94.48 28.585L94.585 28.18C93.865 28.17 93.275 28.04 92.815 27.79C92.365 27.53 92.045 27.075 91.855 26.425L88.135 13.405C88.555 13.215 88.98 13.08 89.41 13C89.84 12.91 90.22 12.865 90.55 12.865C91.02 12.865 91.415 12.985 91.735 13.225C92.055 13.455 92.3 13.9 92.47 14.56L94.18 20.89C94.3 21.28 94.41 21.735 94.51 22.255C94.62 22.765 94.725 23.27 94.825 23.77C94.925 24.26 95.005 24.685 95.065 25.045C95.095 25.185 95.185 25.255 95.335 25.255L98.275 13.105C98.495 13.055 98.75 13.02 99.04 13C99.34 12.97 99.615 12.955 99.865 12.955C100.205 12.955 100.55 12.975 100.9 13.015C101.25 13.045 101.595 13.115 101.935 13.225L102.07 13.48L98.245 27.565ZM118.732 14.275C118.732 15.785 118.427 17.055 117.817 18.085C117.207 19.105 116.362 19.88 115.282 20.41C114.212 20.93 112.987 21.19 111.607 21.19H107.152V18.175C107.462 18.155 107.902 18.14 108.472 18.13C109.042 18.11 109.602 18.095 110.152 18.085C110.712 18.075 111.112 18.07 111.352 18.07C112.242 18.07 112.922 17.865 113.392 17.455C113.862 17.045 114.177 16.55 114.337 15.97C114.507 15.38 114.592 14.815 114.592 14.275C114.592 13.735 114.507 13.175 114.337 12.595C114.177 12.015 113.862 11.52 113.392 11.11C112.922 10.7 112.242 10.495 111.352 10.495C110.992 10.495 110.597 10.495 110.167 10.495C109.747 10.485 109.312 10.475 108.862 10.465V28C108.542 28.06 108.192 28.1 107.812 28.12C107.442 28.14 107.117 28.15 106.837 28.15C106.577 28.15 106.252 28.14 105.862 28.12C105.482 28.1 105.137 28.06 104.827 28V7.675L105.037 7.465C106.237 7.445 107.362 7.425 108.412 7.405C109.472 7.375 110.537 7.36 111.607 7.36C112.987 7.36 114.212 7.615 115.282 8.125C116.352 8.625 117.192 9.385 117.802 10.405C118.422 11.425 118.732 12.715 118.732 14.275ZM120.16 23.935C120.16 22.755 120.425 21.79 120.955 21.04C121.495 20.29 122.205 19.735 123.085 19.375C123.975 19.015 124.95 18.835 126.01 18.835C126.51 18.835 127.105 18.855 127.795 18.895C128.495 18.925 129.135 19.005 129.715 19.135V21.67C129.235 21.56 128.675 21.495 128.035 21.475C127.405 21.445 126.845 21.43 126.355 21.43C125.565 21.43 124.975 21.635 124.585 22.045C124.195 22.445 124 22.985 124 23.665C124 24.175 124.15 24.6 124.45 24.94C124.75 25.28 125.165 25.45 125.695 25.45C126.355 25.45 127.04 25.215 127.75 24.745C128.47 24.275 129.075 23.61 129.565 22.75L130.135 25.42C129.755 25.86 129.31 26.315 128.8 26.785C128.29 27.245 127.69 27.635 127 27.955C126.32 28.265 125.535 28.42 124.645 28.42C123.635 28.42 122.795 28.195 122.125 27.745C121.465 27.295 120.97 26.725 120.64 26.035C120.32 25.345 120.16 24.645 120.16 23.935ZM133.24 26.215C133.16 26.565 132.99 26.94 132.73 27.34C132.48 27.74 132.22 28.035 131.95 28.225C131.19 28.155 130.565 27.94 130.075 27.58C129.585 27.22 129.215 26.785 128.965 26.275C128.725 25.755 128.57 25.23 128.5 24.7V18.115C128.5 17.335 128.315 16.765 127.945 16.405C127.575 16.035 127.03 15.85 126.31 15.85C125.61 15.85 124.87 15.96 124.09 16.18C123.31 16.39 122.525 16.63 121.735 16.9C121.445 16.58 121.21 16.16 121.03 15.64C120.86 15.12 120.755 14.61 120.715 14.11C121.335 13.85 122.025 13.62 122.785 13.42C123.555 13.22 124.33 13.065 125.11 12.955C125.9 12.835 126.625 12.775 127.285 12.775C128.215 12.775 129.065 12.945 129.835 13.285C130.605 13.625 131.225 14.17 131.695 14.92C132.165 15.66 132.4 16.635 132.4 17.845V23.965C132.4 24.455 132.46 24.89 132.58 25.27C132.7 25.65 132.92 25.965 133.24 26.215ZM142.413 25.105C142.503 25.385 142.578 25.69 142.638 26.02C142.698 26.35 142.728 26.68 142.728 27.01C142.728 27.15 142.723 27.3 142.713 27.46C142.703 27.61 142.678 27.75 142.638 27.88C142.238 27.94 141.778 27.995 141.258 28.045C140.738 28.105 140.228 28.135 139.728 28.135C138.558 28.135 137.703 27.84 137.163 27.25C136.633 26.65 136.368 25.73 136.368 24.49V6.13L136.578 5.935H138.093C138.883 5.935 139.433 6.12 139.743 6.49C140.053 6.85 140.208 7.47 140.208 8.35V23.725C140.208 24.645 140.623 25.105 141.453 25.105H142.413ZM144.22 26.935C144.24 26.505 144.365 26.03 144.595 25.51C144.825 24.98 145.09 24.56 145.39 24.25C146.04 24.59 146.72 24.89 147.43 25.15C148.14 25.41 148.855 25.54 149.575 25.54C150.265 25.54 150.8 25.405 151.18 25.135C151.57 24.865 151.77 24.52 151.78 24.1C151.78 23.74 151.645 23.415 151.375 23.125C151.115 22.835 150.71 22.595 150.16 22.405L148.45 21.79C147.76 21.53 147.125 21.21 146.545 20.83C145.975 20.44 145.52 19.965 145.18 19.405C144.85 18.845 144.685 18.175 144.685 17.395C144.685 16.425 144.92 15.59 145.39 14.89C145.86 14.18 146.515 13.635 147.355 13.255C148.195 12.875 149.16 12.685 150.25 12.685C151.13 12.685 152.06 12.805 153.04 13.045C154.02 13.275 154.825 13.545 155.455 13.855C155.475 14.165 155.44 14.505 155.35 14.875C155.26 15.245 155.125 15.59 154.945 15.91C154.775 16.22 154.58 16.465 154.36 16.645C153.78 16.385 153.13 16.145 152.41 15.925C151.7 15.695 150.98 15.58 150.25 15.58C149.73 15.58 149.32 15.71 149.02 15.97C148.73 16.22 148.585 16.535 148.585 16.915C148.585 17.255 148.705 17.54 148.945 17.77C149.185 18 149.555 18.205 150.055 18.385L151.915 19.06C153.045 19.46 153.975 20.035 154.705 20.785C155.445 21.525 155.815 22.51 155.815 23.74C155.815 25.18 155.26 26.32 154.15 27.16C153.04 28 151.535 28.42 149.635 28.42C148.565 28.42 147.565 28.275 146.635 27.985C145.705 27.685 144.9 27.335 144.22 26.935Z" fill="#9C69BC"/>
<path d="M0.756 55V45.28H2.988C3.428 45.28 3.808 45.328 4.128 45.424C4.456 45.52 4.728 45.668 4.944 45.868C5.16 46.068 5.32 46.324 5.424 46.636C5.528 46.94 5.58 47.3 5.58 47.716C5.58 48.116 5.528 48.464 5.424 48.76C5.328 49.048 5.176 49.276 4.968 49.444C4.768 49.612 4.508 49.72 4.188 49.768C4.58 49.856 4.896 50.008 5.136 50.224C5.376 50.432 5.552 50.704 5.664 51.04C5.784 51.368 5.844 51.764 5.844 52.228C5.844 52.644 5.796 53.024 5.7 53.368C5.604 53.712 5.452 54.004 5.244 54.244C5.044 54.484 4.784 54.672 4.464 54.808C4.152 54.936 3.78 55 3.348 55H0.756ZM2.112 54.028H3.024C3.632 54.028 4.036 53.888 4.236 53.608C4.444 53.32 4.548 52.86 4.548 52.228C4.548 51.82 4.492 51.48 4.38 51.208C4.276 50.928 4.104 50.72 3.864 50.584C3.632 50.44 3.316 50.368 2.916 50.368H2.112V54.028ZM2.112 49.336H2.916C3.3 49.336 3.6 49.284 3.816 49.18C4.032 49.068 4.184 48.892 4.272 48.652C4.36 48.412 4.404 48.1 4.404 47.716C4.404 47.268 4.336 46.944 4.2 46.744C4.064 46.544 3.852 46.42 3.564 46.372C3.276 46.316 2.9 46.288 2.436 46.288H2.112V49.336ZM6.52097 55L8.58497 45.28H9.89297L11.969 55H10.685L10.241 52.552H8.26097L7.79297 55H6.52097ZM8.44097 51.58H10.061L9.24497 47.2L8.44097 51.58ZM15.3912 55.108C14.7032 55.108 14.1672 54.964 13.7832 54.676C13.4072 54.388 13.1432 54 12.9912 53.512C12.8472 53.024 12.7752 52.48 12.7752 51.88V48.448C12.7752 47.792 12.8472 47.22 12.9912 46.732C13.1432 46.244 13.4072 45.868 13.7832 45.604C14.1672 45.332 14.7032 45.196 15.3912 45.196C15.9992 45.196 16.4792 45.308 16.8312 45.532C17.1912 45.756 17.4472 46.076 17.5992 46.492C17.7592 46.908 17.8392 47.408 17.8392 47.992V48.76H16.5552V48.076C16.5552 47.716 16.5352 47.4 16.4952 47.128C16.4632 46.848 16.3672 46.632 16.2072 46.48C16.0472 46.328 15.7792 46.252 15.4032 46.252C15.0192 46.252 14.7392 46.336 14.5632 46.504C14.3872 46.664 14.2712 46.896 14.2152 47.2C14.1672 47.496 14.1432 47.844 14.1432 48.244V52.096C14.1432 52.584 14.1832 52.972 14.2632 53.26C14.3432 53.54 14.4752 53.74 14.6592 53.86C14.8432 53.98 15.0912 54.04 15.4032 54.04C15.7712 54.04 16.0352 53.96 16.1952 53.8C16.3552 53.632 16.4552 53.404 16.4952 53.116C16.5352 52.828 16.5552 52.492 16.5552 52.108V51.388H17.8392V52.108C17.8392 52.7 17.7672 53.224 17.6232 53.68C17.4792 54.128 17.2312 54.48 16.8792 54.736C16.5272 54.984 16.0312 55.108 15.3912 55.108ZM21.7532 56.476V55.432C22.1692 55.472 22.4892 55.472 22.7132 55.432C22.9452 55.392 23.1052 55.308 23.1932 55.18C23.2892 55.06 23.3372 54.896 23.3372 54.688C23.3372 54.472 23.3132 54.216 23.2652 53.92L21.3452 45.28H22.6292L23.4452 49.42L23.9372 52.504L24.3692 49.444L25.1012 45.28H26.3972L24.6572 53.944C24.5772 54.336 24.5092 54.68 24.4532 54.976C24.4052 55.272 24.3332 55.524 24.2372 55.732C24.1492 55.94 24.0132 56.104 23.8292 56.224C23.6452 56.344 23.3852 56.424 23.0492 56.464C22.7212 56.504 22.2892 56.508 21.7532 56.476ZM26.591 55L28.847 50.032L26.819 45.28H28.127L29.951 49.972H30.023V45.28H31.175V49.972H31.259L33.071 45.28H34.391L32.351 50.032L34.619 55H33.287L31.271 50.14H31.175V55H30.023V50.14H29.939L27.911 55H26.591ZM35.4083 55V45.28H39.1763V46.288H36.7643V49.504H38.7203V50.464H36.7643V54.028H39.2003V55H35.4083ZM42.3293 55L44.5853 50.032L42.5573 45.28H43.8652L45.6893 49.972H45.7613V45.28H46.9133V49.972H46.9973L48.8093 45.28H50.1293L48.0893 50.032L50.3573 55H49.0253L47.0093 50.14H46.9133V55H45.7613V50.14H45.6773L43.6493 55H42.3293ZM50.5226 56.764V54.028H50.9666C51.1026 53.916 51.2346 53.78 51.3626 53.62C51.4986 53.46 51.6226 53.252 51.7346 52.996C51.8546 52.732 51.9626 52.396 52.0586 51.988C52.1546 51.572 52.2386 51.052 52.3106 50.428C52.3906 49.804 52.4506 49.048 52.4906 48.16L52.6466 45.28H56.7146V54.028H57.6506V56.764H56.6066L56.4986 55H51.6746L51.5666 56.764H50.5226ZM52.2266 54.028H55.3706V46.288H53.7986L53.7026 48.484C53.6706 49.348 53.6186 50.076 53.5466 50.668C53.4826 51.252 53.4026 51.736 53.3066 52.12C53.2186 52.496 53.1146 52.804 52.9946 53.044C52.8826 53.276 52.7586 53.464 52.6226 53.608C52.4946 53.752 52.3626 53.892 52.2266 54.028ZM58.6701 55V45.28H62.4381V46.288H60.0261V49.504H61.9821V50.464H60.0261V54.028H62.4621V55H58.6701ZM64.6248 55V46.288H62.9808V45.28H67.5768V46.288H65.9808V55H64.6248ZM71.256 55V45.28H72.456V52.012L75.3 45.28H76.272V55H75.084V48.16L72.264 55H71.256ZM77.7951 55V45.28H79.1511V49.48H81.6471V45.28H83.0031V55H81.6471V50.452H79.1511V55H77.7951ZM85.5896 55V46.288H83.9456V45.28H88.5416V46.288H86.9456V55H85.5896ZM89.4787 55V45.28H93.2467V46.288H90.8347V49.504H92.7907V50.464H90.8347V54.028H93.2707V55H89.4787ZM94.3654 55V45.28H96.7774C97.3614 45.28 97.8254 45.388 98.1694 45.604C98.5214 45.812 98.7774 46.116 98.9374 46.516C99.0974 46.916 99.1774 47.4 99.1774 47.968C99.1774 48.48 99.0854 48.924 98.9014 49.3C98.7254 49.676 98.4614 49.968 98.1094 50.176C97.7574 50.376 97.3174 50.476 96.7894 50.476H95.7214V55H94.3654ZM95.7214 49.504H96.3454C96.7374 49.504 97.0454 49.46 97.2694 49.372C97.4934 49.284 97.6534 49.132 97.7494 48.916C97.8454 48.692 97.8934 48.38 97.8934 47.98C97.8934 47.516 97.8574 47.16 97.7854 46.912C97.7214 46.664 97.5814 46.492 97.3654 46.396C97.1494 46.3 96.8134 46.252 96.3574 46.252H95.7214V49.504ZM100.131 55V45.28H103.899V46.288H101.487V49.504H103.443V50.464H101.487V54.028H103.923V55H100.131ZM107.454 55.108C106.766 55.108 106.23 54.964 105.846 54.676C105.47 54.388 105.206 54 105.054 53.512C104.91 53.024 104.838 52.48 104.838 51.88V48.448C104.838 47.792 104.91 47.22 105.054 46.732C105.206 46.244 105.47 45.868 105.846 45.604C106.23 45.332 106.766 45.196 107.454 45.196C108.062 45.196 108.542 45.308 108.894 45.532C109.254 45.756 109.51 46.076 109.662 46.492C109.822 46.908 109.902 47.408 109.902 47.992V48.76H108.618V48.076C108.618 47.716 108.598 47.4 108.558 47.128C108.526 46.848 108.43 46.632 108.27 46.48C108.11 46.328 107.842 46.252 107.466 46.252C107.082 46.252 106.802 46.336 106.626 46.504C106.45 46.664 106.334 46.896 106.278 47.2C106.23 47.496 106.206 47.844 106.206 48.244V52.096C106.206 52.584 106.246 52.972 106.326 53.26C106.406 53.54 106.538 53.74 106.722 53.86C106.906 53.98 107.154 54.04 107.466 54.04C107.834 54.04 108.098 53.96 108.258 53.8C108.418 53.632 108.518 53.404 108.558 53.116C108.598 52.828 108.618 52.492 108.618 52.108V51.388H109.902V52.108C109.902 52.7 109.83 53.224 109.686 53.68C109.542 54.128 109.294 54.48 108.942 54.736C108.59 54.984 108.094 55.108 107.454 55.108ZM111.194 55V45.28H112.55V49.48H115.046V45.28H116.402V55H115.046V50.452H112.55V55H111.194ZM117.392 55L119.456 45.28H120.764L122.84 55H121.556L121.112 52.552H119.132L118.664 55H117.392ZM119.312 51.58H120.932L120.116 47.2L119.312 51.58ZM123.226 55L125.266 50.632C124.834 50.44 124.486 50.124 124.222 49.684C123.966 49.236 123.838 48.664 123.838 47.968C123.838 47.448 123.934 46.988 124.126 46.588C124.318 46.18 124.638 45.86 125.086 45.628C125.534 45.396 126.134 45.28 126.886 45.28H128.854V55H127.498V50.968H126.73C126.714 50.968 126.662 50.968 126.574 50.968C126.486 50.96 126.434 50.956 126.418 50.956L124.738 55H123.226ZM126.994 49.996H127.498V46.252H126.958C126.35 46.252 125.89 46.384 125.578 46.648C125.274 46.912 125.122 47.348 125.122 47.956C125.122 48.644 125.262 49.156 125.542 49.492C125.822 49.828 126.306 49.996 126.994 49.996ZM133.108 55V45.28H134.464V49.6H134.968L136.708 45.28H138.064L136.144 49.9L138.304 55H136.948L134.98 50.26H134.464V55H133.108ZM141.685 55.108C141.029 55.108 140.505 54.98 140.113 54.724C139.721 54.468 139.441 54.104 139.273 53.632C139.105 53.152 139.021 52.592 139.021 51.952V48.268C139.021 47.628 139.105 47.08 139.273 46.624C139.449 46.16 139.729 45.808 140.113 45.568C140.505 45.32 141.029 45.196 141.685 45.196C142.341 45.196 142.861 45.32 143.245 45.568C143.629 45.816 143.905 46.168 144.073 46.624C144.249 47.08 144.337 47.628 144.337 48.268V51.964C144.337 52.596 144.249 53.148 144.073 53.62C143.905 54.092 143.629 54.46 143.245 54.724C142.861 54.98 142.341 55.108 141.685 55.108ZM141.685 54.04C142.045 54.04 142.317 53.968 142.501 53.824C142.685 53.672 142.809 53.464 142.873 53.2C142.937 52.928 142.969 52.612 142.969 52.252V47.992C142.969 47.632 142.937 47.324 142.873 47.068C142.809 46.804 142.685 46.604 142.501 46.468C142.317 46.324 142.045 46.252 141.685 46.252C141.325 46.252 141.049 46.324 140.857 46.468C140.673 46.604 140.549 46.804 140.485 47.068C140.421 47.324 140.389 47.632 140.389 47.992V52.252C140.389 52.612 140.421 52.928 140.485 53.2C140.549 53.464 140.673 53.672 140.857 53.824C141.049 53.968 141.325 54.04 141.685 54.04ZM145.646 55L145.826 45.28H147.158L148.874 53.164L150.602 45.28H151.922L152.102 55H151.01L150.902 47.944L149.258 55H148.49L146.858 47.944L146.75 55H145.646ZM153.592 55V45.28H158.944V55H157.588V46.252H154.948V55H153.592ZM159.931 55L161.995 45.28H163.303L165.379 55H164.095L163.651 52.552H161.671L161.203 55H159.931ZM161.851 51.58H163.471L162.655 47.2L161.851 51.58ZM166.365 55V45.28H167.721V49.48H170.217V45.28H171.573V55H170.217V50.452H167.721V55H166.365ZM173.092 55V45.28H174.292V52.012L177.136 45.28H178.108V55H176.92V48.16L174.1 55H173.092ZM179.031 55L181.071 50.632C180.639 50.44 180.291 50.124 180.027 49.684C179.771 49.236 179.643 48.664 179.643 47.968C179.643 47.448 179.739 46.988 179.931 46.588C180.123 46.18 180.443 45.86 180.891 45.628C181.339 45.396 181.939 45.28 182.691 45.28H184.659V55H183.303V50.968H182.535C182.519 50.968 182.467 50.968 182.379 50.968C182.291 50.96 182.239 50.956 182.223 50.956L180.543 55H179.031ZM182.799 49.996H183.303V46.252H182.763C182.155 46.252 181.695 46.384 181.383 46.648C181.079 46.912 180.927 47.348 180.927 47.956C180.927 48.644 181.067 49.156 181.347 49.492C181.627 49.828 182.111 49.996 182.799 49.996ZM186.422 52.924L186.014 45.28H187.31L186.878 52.924H186.422ZM186.014 55V53.68H187.31V55H186.014Z" fill="#564E6A"/>
</svg>
